<svg xmlns="http://www.w3.org/2000/svg" viewBox="0 0 11.63 11.63"><defs><style>.cls-1{fill:#c90d0d;}</style></defs><title>Asset 2</title><g id="Layer_2" data-name="Layer 2"><g id="Layer_1-2" data-name="Layer 1"><path class="cls-1" d="M5.81,0A5.58,5.58,0,0,1,8.72.79a5.82,5.82,0,0,1,2.12,2.12,5.66,5.66,0,0,1,.78,2.9,5.67,5.67,0,0,1-.78,2.91,5.82,5.82,0,0,1-2.12,2.12,5.67,5.67,0,0,1-2.91.78,5.66,5.66,0,0,1-2.9-.78A5.82,5.82,0,0,1,.79,8.72,5.58,5.58,0,0,1,0,5.81a5.57,5.57,0,0,1,.79-2.9A5.82,5.82,0,0,1,2.91.79,5.57,5.57,0,0,1,5.81,0Zm0,10.5a4.57,4.57,0,0,0,2.35-.63A4.67,4.67,0,0,0,9.87,8.16a4.57,4.57,0,0,0,.63-2.35,4.56,4.56,0,0,0-.63-2.34A4.67,4.67,0,0,0,8.16,1.76a4.62,4.62,0,0,0-4.69,0A4.67,4.67,0,0,0,1.76,3.47a4.62,4.62,0,0,0,0,4.69A4.67,4.67,0,0,0,3.47,9.87,4.56,4.56,0,0,0,5.81,10.5ZM8.2,4.36a.31.31,0,0,0,.07-.21A.25.25,0,0,0,8.2,4l-.54-.54a.27.27,0,0,0-.18-.07.38.38,0,0,0-.21.07L5.81,4.88,4.36,3.42a.38.38,0,0,0-.21-.07A.29.29,0,0,0,4,3.42L3.42,4a.29.29,0,0,0-.07.19.38.38,0,0,0,.07.21L4.88,5.81,3.42,7.27a.38.38,0,0,0-.07.21.27.27,0,0,0,.07.18L4,8.2a.25.25,0,0,0,.19.07.31.31,0,0,0,.21-.07L5.81,6.75,7.27,8.2a.31.31,0,0,0,.21.07.23.23,0,0,0,.18-.07l.54-.54a.23.23,0,0,0,.07-.18.31.31,0,0,0-.07-.21L6.75,5.81Z"/></g></g></svg>