<svg xmlns="http://www.w3.org/2000/svg" viewBox="0 0 11.63 11.63"><defs><style>.cls-1{fill:#10c421;}</style></defs><title>Asset 3</title><g id="Layer_2" data-name="Layer 2"><g id="Layer_1-2" data-name="Layer 1"><path class="cls-1" d="M5.81,0A5.58,5.58,0,0,1,8.72.79a5.82,5.82,0,0,1,2.12,2.12,5.66,5.66,0,0,1,.78,2.9,5.67,5.67,0,0,1-.78,2.91,5.82,5.82,0,0,1-2.12,2.12,5.67,5.67,0,0,1-2.91.78,5.66,5.66,0,0,1-2.9-.78A5.82,5.82,0,0,1,.79,8.72,5.58,5.58,0,0,1,0,5.81a5.57,5.57,0,0,1,.79-2.9A5.82,5.82,0,0,1,2.91.79,5.57,5.57,0,0,1,5.81,0Zm0,1.12a4.57,4.57,0,0,0-2.34.64A4.67,4.67,0,0,0,1.76,3.47a4.62,4.62,0,0,0,0,4.69A4.67,4.67,0,0,0,3.47,9.87a4.56,4.56,0,0,0,2.34.63,4.57,4.57,0,0,0,2.35-.63A4.67,4.67,0,0,0,9.87,8.16a4.57,4.57,0,0,0,.63-2.35,4.56,4.56,0,0,0-.63-2.34A4.67,4.67,0,0,0,8.16,1.76,4.58,4.58,0,0,0,5.81,1.12ZM9.09,4.17a.26.26,0,0,1,.1.21.22.22,0,0,1-.1.19l-4,4a.29.29,0,0,1-.21.09.23.23,0,0,1-.19-.09L2.53,6.45a.33.33,0,0,1-.09-.22.21.21,0,0,1,.09-.18l.54-.54a.25.25,0,0,1,.19-.07.31.31,0,0,1,.21.07L4.85,6.94,8.18,3.63a.29.29,0,0,1,.19-.07.26.26,0,0,1,.21.1Z"/></g></g></svg>